<svg width="20" height="21" viewBox="0 0 20 21" fill="none" xmlns="http://www.w3.org/2000/svg">
<path fill-rule="evenodd" clip-rule="evenodd" d="M5 19.167V17.5003H6.66667V18.3337C6.66667 19.2541 7.41286 20.0003 8.33333 20.0003H10.8333C11.7538 20.0003 12.5 19.2541 12.5 18.3337V16.667H15V17.5003C15 18.4208 15.7462 19.167 16.6667 19.167H18.3333C19.2538 19.167 20 18.4208 20 17.5003V5.83366C20 4.91318 19.2538 4.16699 18.3333 4.16699H3.33333H1.66667C0.746192 4.16699 0 4.91318 0 5.83366V19.167C0 20.0875 0.746192 20.8337 1.66667 20.8337H3.33333C4.25381 20.8337 5 20.0875 5 19.167ZM1.66667 19.167V5.83366H16.6667H18.3333V17.5003H16.6667V14.167H15V15.0003H12.5V14.167H10.8333V18.3337H8.33333V14.167H6.66667V15.8337H5V14.167H3.33333V19.167H1.66667ZM15.8333 7.50033V9.16699H4.16667V7.50033H15.8333ZM13.3333 12.5003V10.8337H4.16667V12.5003H13.3333Z" fill="#1596DF"/>
</svg>
