<svg width="20" height="21" viewBox="0 0 20 21" fill="none" xmlns="http://www.w3.org/2000/svg">
<g clip-path="url(#clip0_627_135)">
<path d="M18.8235 9.81564V1.87305H17.6471V3.04952H2.35294V1.87305H1.17647V9.82893C0.490235 10.0843 0 10.746 0 11.5201V16.775H1.17647V19.128H4.70588V16.775H15.2941V19.128H18.8235V16.775H20V11.5201C20 10.7204 19.5154 10.0581 18.8235 9.81564ZM17.6471 9.71619H16.3922V8.83383C16.3922 7.80673 15.5565 6.97109 14.5294 6.97109H11.2745C10.7818 6.97109 10.3335 7.16371 10 7.47721C9.66651 7.16371 9.2182 6.97109 8.72549 6.97109H5.39216C4.36506 6.97109 3.52941 7.80673 3.52941 8.83383V9.71619H2.35294V4.22599H17.6471V9.71619ZM9.41177 9.71619H4.70588V8.83383C4.70588 8.45544 5.01376 8.14756 5.39216 8.14756H8.72549C9.10388 8.14756 9.41177 8.45544 9.41177 8.83383V9.71619ZM10.5882 8.83383C10.5882 8.45544 10.8961 8.14756 11.2745 8.14756H14.5294C14.9078 8.14756 15.2157 8.45544 15.2157 8.83383V9.71619H10.5882V8.83383ZM3.52941 17.9515H2.35294V16.775H3.52941V17.9515ZM17.6471 17.9515H16.4706V16.775H17.6471V17.9515ZM18.8235 15.5985H1.17647V14.4221H18.8235V15.5985ZM1.17647 13.2456V11.5201C1.17647 11.1741 1.45796 10.8927 1.80392 10.8927H18.2353C18.5707 10.8927 18.8235 11.1624 18.8235 11.5201V13.2456H1.17647Z" fill="#999999"/>
</g>
<defs>
<clipPath id="clip0_627_135">
<rect width="20" height="20" fill="white" transform="translate(0 0.5)"/>
</clipPath>
</defs>
</svg>
