<svg width="20" height="21" viewBox="0 0 20 21" fill="none" xmlns="http://www.w3.org/2000/svg">
<path fill-rule="evenodd" clip-rule="evenodd" d="M16.6673 1V7.66667H16.6674L16.6673 8.50002L16.6673 9.33333L16.6673 10.9952C16.6746 12.2637 15.9668 12.6653 13.9934 13.2566C12.8368 13.6032 12.5007 13.7936 12.5007 13.9167C12.5007 14.5563 12.5592 14.9859 12.6841 15.4854C12.66 15.3888 12.8023 15.9392 12.8337 16.0858C12.889 16.3437 12.9173 16.5785 12.9173 16.8333C12.9173 18.2174 11.6154 19.3333 10.0007 19.3333C8.38592 19.3333 7.08398 18.2174 7.08398 16.8333C7.08398 16.5785 7.11232 16.3437 7.16759 16.0858C7.19901 15.9392 7.34135 15.3888 7.3172 15.4854C7.44208 14.9859 7.50065 14.5563 7.50065 13.9167C7.50065 13.7928 7.16541 13.6028 6.01119 13.2565C4.04041 12.6653 3.33398 12.265 3.33398 11V9.33333V7.66667V1H16.6673ZM10.7727 9.33333H15.0007L15.0007 11C15.0014 11.1254 14.6677 11.3147 13.515 11.6601L13.5115 11.6611C11.5417 12.2514 10.834 12.6522 10.834 13.9167C10.834 14.7006 10.9108 15.2641 11.0672 15.8896C11.0523 15.83 11.1812 16.3285 11.204 16.435C11.2362 16.5849 11.2507 16.705 11.2507 16.8333C11.2507 17.235 10.747 17.6667 10.0007 17.6667C9.25427 17.6667 8.75065 17.235 8.75065 16.8333C8.75065 16.705 8.76515 16.5849 8.79726 16.435C8.82008 16.3285 8.94901 15.83 8.9341 15.8896C9.09047 15.2641 9.16732 14.7006 9.16732 13.9167C9.16732 12.6517 8.46089 12.2514 6.49011 11.6601C5.33589 11.3139 5.00065 11.1239 5.00065 11V9.33333H10.7727ZM5.00065 7.66667V2.66667H6.66732V6H8.33398V2.66667H10.0007V5.16667H11.6673V2.66667H15.0007V7.66667H5.00065Z" fill="#999999"/>
</svg>
