<svg width="16" height="17" viewBox="0 0 16 17" fill="none" xmlns="http://www.w3.org/2000/svg">
<path fill-rule="evenodd" clip-rule="evenodd" d="M4.62403 4.56391C4.67126 4.49825 4.72372 4.41786 4.79061 4.30947C4.81505 4.26987 4.8817 4.1599 4.93133 4.07804L4.98722 3.98593C5.53987 3.08192 5.94161 2.66699 6.66601 2.66699H9.33268C10.0571 2.66699 10.4588 3.08192 11.0115 3.98593L11.0674 4.07802L11.0676 4.07835C11.1172 4.16019 11.1837 4.26992 11.2081 4.30947C11.275 4.41786 11.3274 4.49825 11.3747 4.56391C11.4058 4.60721 11.433 4.64162 11.4552 4.66699H13.3327C14.4373 4.66699 15.3327 5.56242 15.3327 6.66699V12.667C15.3327 13.7716 14.4373 14.667 13.3327 14.667H2.66602C1.56145 14.667 0.666016 13.7716 0.666016 12.667V6.66699C0.666016 5.56242 1.56145 4.66699 2.66602 4.66699H4.54348C4.56567 4.64162 4.59288 4.60721 4.62403 4.56391ZM2.66605 6.00036C2.29786 6.00036 1.99938 6.29884 1.99938 6.66703V12.667C1.99938 13.0352 2.29786 13.3337 2.66605 13.3337H13.3327C13.7009 13.3337 13.9994 13.0352 13.9994 12.667V6.66703C13.9994 6.29884 13.7009 6.00036 13.3327 6.00036H11.3327C10.8898 6.00036 10.5911 5.75796 10.2923 5.34253C10.2235 5.24694 10.1554 5.14257 10.0735 5.00975C10.0454 4.96433 9.97272 4.84436 9.92269 4.76181L9.92248 4.76145L9.87392 4.68142C9.57238 4.18817 9.39053 4.00036 9.33272 4.00036H6.66605C6.60823 4.00036 6.42638 4.18817 6.12485 4.68142L6.07634 4.76136L6.07633 4.76138C6.0263 4.84394 5.95338 4.96425 5.9253 5.00975C5.84333 5.14257 5.77521 5.24694 5.70646 5.34253C5.40763 5.75796 5.10894 6.00036 4.66605 6.00036H2.66605ZM13.3327 7.33366C13.3327 7.70185 13.0342 8.00033 12.666 8.00033C12.2979 8.00033 11.9994 7.70185 11.9994 7.33366C11.9994 6.96547 12.2979 6.66699 12.666 6.66699C13.0342 6.66699 13.3327 6.96547 13.3327 7.33366ZM4.66601 9.33369C4.66601 11.1746 6.1584 12.667 7.99935 12.667C9.8403 12.667 11.3327 11.1746 11.3327 9.33369C11.3327 7.49274 9.8403 6.00036 7.99935 6.00036C6.1584 6.00036 4.66601 7.49274 4.66601 9.33369ZM9.99938 9.33363C9.99938 10.4382 9.10395 11.3336 7.99938 11.3336C6.89481 11.3336 5.99938 10.4382 5.99938 9.33363C5.99938 8.22906 6.89481 7.33363 7.99938 7.33363C9.10395 7.33363 9.99938 8.22906 9.99938 9.33363Z" fill="white"/>
</svg>
