<svg width="24" height="24" viewBox="0 0 24 24" fill="none" xmlns="http://www.w3.org/2000/svg">
<path fill-rule="evenodd" clip-rule="evenodd" d="M5.5 12C5.5 10.2761 6.18482 8.62279 7.40381 7.40381C8.62279 6.18482 10.2761 5.5 12 5.5C13.7239 5.5 15.3772 6.18482 16.5962 7.40381C17.8152 8.62279 18.5 10.2761 18.5 12C18.5 13.7239 17.8152 15.3772 16.5962 16.5962C15.3772 17.8152 13.7239 18.5 12 18.5C10.2761 18.5 8.62279 17.8152 7.40381 16.5962C6.18482 15.3772 5.5 13.7239 5.5 12ZM12 4C9.87827 4 7.84344 4.84285 6.34315 6.34315C4.84285 7.84344 4 9.87827 4 12C4 14.1217 4.84285 16.1566 6.34315 17.6569C7.84344 19.1571 9.87827 20 12 20C14.1217 20 16.1566 19.1571 17.6569 17.6569C19.1571 16.1566 20 14.1217 20 12C20 9.87827 19.1571 7.84344 17.6569 6.34315C16.1566 4.84285 14.1217 4 12 4ZM12.5 8.75C12.5 8.55109 12.421 8.36032 12.2803 8.21967C12.1397 8.07902 11.9489 8 11.75 8C11.5511 8 11.3603 8.07902 11.2197 8.21967C11.079 8.36032 11 8.55109 11 8.75V12.25C11 12.3998 11.0449 12.5461 11.1289 12.6702C11.2128 12.7942 11.332 12.8903 11.471 12.946L13.971 13.946C14.1541 14.0129 14.3561 14.0058 14.5341 13.9263C14.7121 13.8468 14.8522 13.7011 14.9246 13.5201C14.997 13.3391 14.9961 13.137 14.9221 12.9567C14.8481 12.7763 14.7067 12.6319 14.528 12.554L12.5 11.742V8.75Z" fill="#FF004C"/>
</svg>
