<svg width="20" height="20" viewBox="0 0 20 20" fill="none" xmlns="http://www.w3.org/2000/svg">
<path d="M5.18821 4.0097C4.86278 3.68427 4.33514 3.68427 4.0097 4.0097C3.68427 4.33514 3.68427 4.86278 4.0097 5.18821L8.82198 10.0005L4.00975 14.8127C3.68432 15.1382 3.68432 15.6658 4.00975 15.9912C4.33519 16.3167 4.86283 16.3167 5.18826 15.9912L10.0005 11.179L14.8127 15.9912C15.1382 16.3167 15.6658 16.3167 15.9912 15.9912C16.3167 15.6658 16.3167 15.1382 15.9912 14.8127L11.179 10.0005L15.9913 5.18821C16.3167 4.86278 16.3167 4.33514 15.9913 4.0097C15.6658 3.68427 15.1382 3.68427 14.8128 4.0097L10.0005 8.82198L5.18821 4.0097Z" fill="#FF004C"/>
</svg>
