<svg width="16" height="16" viewBox="0 0 16 16" fill="none" xmlns="http://www.w3.org/2000/svg">
<path fill-rule="evenodd" clip-rule="evenodd" d="M2.75 15C2.55109 15 2.36032 14.921 2.21967 14.7803C2.07902 14.6397 2 14.4489 2 14.25L2 7.75C2 7.5511 2.07902 7.3603 2.21967 7.2197C2.36032 7.079 2.55109 7 2.75 7C2.94891 7 3.13968 7.079 3.28033 7.2197C3.42098 7.3603 3.5 7.5511 3.5 7.75L3.5 14.25C3.5 14.4489 3.42098 14.6397 3.28033 14.7803C3.13968 14.921 2.94891 15 2.75 15ZM7.75 15C7.55109 15 7.36032 14.921 7.21967 14.7803C7.07902 14.6397 7 14.4489 7 14.25L7 1.75C7 1.5511 7.07902 1.3603 7.21967 1.2197C7.36032 1.079 7.55109 1 7.75 1C7.94891 1 8.13968 1.079 8.28033 1.2197C8.42098 1.3603 8.5 1.5511 8.5 1.75L8.5 14.25C8.5 14.4489 8.42098 14.6397 8.28033 14.7803C8.13968 14.921 7.94891 15 7.75 15ZM12 14.25C12 14.4489 12.079 14.6397 12.2197 14.7803C12.3603 14.921 12.5511 15 12.75 15C12.9489 15 13.1397 14.921 13.2803 14.7803C13.421 14.6397 13.5 14.4489 13.5 14.25L13.5 4.75C13.5 4.5511 13.421 4.3603 13.2803 4.2197C13.1397 4.079 12.9489 4 12.75 4C12.5511 4 12.3603 4.079 12.2197 4.2197C12.079 4.3603 12 4.5511 12 4.75L12 14.25Z" fill="#B3B3B3"/>
</svg>
