<svg width="24" height="24" viewBox="0 0 24 24" fill="none" xmlns="http://www.w3.org/2000/svg">
<path fill-rule="evenodd" clip-rule="evenodd" d="M20.6186 19.4034L21.7844 19.8273L21.2227 21.701L2.95418 21.7349L2.34375 19.8442L3.74478 19.3398L4.38065 20.6306L5.93005 20.1007L5.37261 18.7527L8.04114 17.801L8.2531 16.7688C7.69565 15.9633 7.38196 14.9904 7.20603 13.7166C6.07842 12.2583 6.11022 10.5987 6.65707 10.0773C6.62471 9.91105 6.60768 9.74219 6.6062 9.57283V9.40963C1.2988 7.34305 3.44592 2.40234 12.151 2.40234C20.856 2.40234 22.6089 7.3918 17.5792 9.44142V9.50077C17.5775 9.69203 17.5548 9.88253 17.5114 10.0688C18.0752 10.586 18.1091 12.2795 16.9433 13.7547C16.8119 15.1007 16.5512 16.1075 16.0446 16.9002L16.2566 17.8264L18.9696 18.7993L18.3507 20.2046L19.9255 20.798L20.6186 19.4034ZM12.3057 20.8871L15.2901 18.8862L15.0781 17.9727C14.5919 18.3341 14.0594 18.6285 13.4948 18.8481L10.981 18.9413C10.4189 18.672 9.88496 18.3476 9.38706 17.9727L9.16239 19.2614L12.3057 20.8871ZM11.3392 17.6569L13.0624 17.5678C15.2137 16.4805 15.7776 15.3275 15.9238 12.1015C13.836 13.3329 10.2752 13.3541 8.20647 12.1354C8.39087 15.1642 9.04793 16.6479 11.3392 17.6357V17.6569ZM12.0683 3.95387C10.4384 3.95387 10.3599 6.43376 12.0959 6.43376C13.6834 6.43376 13.694 3.95387 12.0683 3.95387ZM16.6868 9.58131L16.7314 7.74577L7.74016 7.81359V9.50925L16.6868 9.58131Z" fill="#39C568"/>
</svg>
