<svg width="20" height="20" viewBox="0 0 20 20" fill="none" xmlns="http://www.w3.org/2000/svg">
<path fill-rule="evenodd" clip-rule="evenodd" d="M10.8327 15.8333V14.9409C12.4856 14.7045 13.915 13.7751 14.8171 12.4565C17.0789 12.1449 18.3327 10.1857 18.3327 7.5V5C18.3327 4.07953 17.5865 3.33333 16.666 3.33333H15.6097C15.3215 2.83517 14.7829 2.5 14.166 2.5H5.83268C5.21578 2.5 4.67716 2.83517 4.38899 3.33333H3.33268C2.41221 3.33333 1.66602 4.07953 1.66602 5V7.5C1.66602 10.1857 2.91984 12.1449 5.18156 12.4565C6.08372 13.7751 7.5131 14.7045 9.16602 14.9409V15.8333H8.33268C7.41221 15.8333 6.66602 16.5795 6.66602 17.5H13.3327C13.3327 16.5795 12.5865 15.8333 11.666 15.8333H10.8327ZM3.33268 5H4.16602V9.16667C4.16602 9.54813 4.20263 9.92104 4.27254 10.2821C3.65791 9.72887 3.33268 8.77605 3.33268 7.5V5ZM15.8327 5V9.16667C15.8327 9.54813 15.7961 9.92104 15.7262 10.2821C16.3408 9.72887 16.666 8.77605 16.666 7.5V5H15.8327ZM5.83268 9.16667V4.16667H14.166V9.16667C14.166 11.4679 12.3005 13.3333 9.99935 13.3333C7.69816 13.3333 5.83268 11.4679 5.83268 9.16667Z" fill="white"/>
</svg>
