<svg width="20" height="21" viewBox="0 0 20 21" fill="none" xmlns="http://www.w3.org/2000/svg">
<path fill-rule="evenodd" clip-rule="evenodd" d="M12.8452 1.5H4.16667C3.24619 1.5 2.5 2.24619 2.5 3.16667V18.1667C2.5 19.0871 3.24619 19.8333 4.16667 19.8333H15.8333C16.7538 19.8333 17.5 19.0871 17.5 18.1667V6.15482L12.8452 1.5ZM4.16667 3.16667H10.8333V6.5C10.8333 7.42047 11.5795 8.16667 12.5 8.16667H15.8333V18.1667H4.16667V3.16667ZM12.5 6.5V3.51184L15.4882 6.5H12.5ZM9.16665 9V12.8215L8.08924 11.7441L6.91073 12.9226L9.99999 16.0118L13.0892 12.9226L11.9107 11.7441L10.8333 12.8215V9H9.16665Z" fill="#00A046"/>
</svg>
