<svg width="24" height="24" viewBox="0 0 24 24" fill="none" xmlns="http://www.w3.org/2000/svg">
<path fill-rule="evenodd" clip-rule="evenodd" d="M10.8342 18.5134L10.8893 17.3095C13.8567 17.1802 15.3001 15.635 15.3001 13.0195C15.3001 9.85918 12.6782 8.8206 10.955 9.1894C11.1627 8.57049 12.0593 3.9456 8.26736 3.9456C4.61323 3.9456 5.38475 7.67603 5.5204 8.39669C2.78192 8.39669 2.27111 10.8193 2.27111 11.9703C2.27111 13.4985 3.59796 15.1157 6.40214 15.1157V16.4256C-0.361391 16.4256 -0.634815 8.73793 3.90953 7.23516C3.49834 4.36951 5.46317 2.42163 8.25676 2.42163C10.8002 2.42163 12.8435 4.3144 12.5552 7.67603L16.1585 2.42163L20.9254 8.68071L19.3188 9.34625L22.2077 12.6994L19.8529 13.5811L23.7105 18.2442L10.8342 18.5134ZM4.68741 11.0504L5.07529 10.2174L7.67388 11.7371L7.78622 7.8456L9.19361 7.58489L9.6048 13.5705L12.8308 11.2517L13.348 12.3454L9.7447 15.9487L10.0987 21.3875L7.40258 21.2582L7.61453 14.2022L4.68741 11.0504ZM18.3332 19.4184L18.5197 21.273H14.7808L14.9694 19.2319L18.3332 19.4184Z" fill="#39C568"/>
</svg>
