<svg width="24" height="25" viewBox="0 0 24 25" fill="none" xmlns="http://www.w3.org/2000/svg">
<path fill-rule="evenodd" clip-rule="evenodd" d="M16.5532 2.834C15.1056 2.83398 14.1724 3.00645 13.1027 3.53006C12.7066 3.72391 12.335 3.95738 11.99 4.22974C11.6582 3.97265 11.3015 3.7499 10.9218 3.56212C9.83132 3.02276 8.85028 2.83398 7.45455 2.83398C3.71644 2.83398 1 5.93125 1 9.95386C1 12.9917 2.69383 15.9263 5.84884 18.7639C7.50489 20.2533 9.61932 21.7273 11.1336 22.5115L12 22.9601L12.8664 22.5115C14.3807 21.7273 16.4951 20.2533 18.1512 18.7639C21.3062 15.9263 23 12.9917 23 9.95386C23 5.97383 20.2579 2.84934 16.5532 2.834ZM21 9.95386C21 12.3339 19.5862 14.7833 16.8137 17.2768C15.3022 18.6363 13.359 19.9949 12 20.7077C10.641 19.9949 8.69782 18.6363 7.18628 17.2768C4.41382 14.7833 3 12.3339 3 9.95386C3 6.9817 4.88364 4.83398 7.45455 4.83398C8.56428 4.83398 9.24813 4.96557 10.0351 5.35483C10.5 5.58475 10.9109 5.88836 11.2665 6.26776L12.0023 7.05269L12.7315 6.26153C13.0951 5.86694 13.512 5.55642 13.9819 5.32641C14.7459 4.95248 15.387 4.83398 16.5491 4.83399C19.0882 4.84452 21 7.02295 21 9.95386Z" fill="#999999"/>
</svg>
