<svg width="20" height="21" viewBox="0 0 20 21" fill="none" xmlns="http://www.w3.org/2000/svg">
<g id="24 / basic / list">
<path id="icon" fill-rule="evenodd" clip-rule="evenodd" d="M1.66602 5.33268C1.66602 6.25316 2.41221 6.99935 3.33268 6.99935C4.25316 6.99935 4.99935 6.25316 4.99935 5.33268C4.99935 4.41221 4.25316 3.66602 3.33268 3.66602C2.41221 3.66602 1.66602 4.41221 1.66602 5.33268ZM18.3327 4.49935V6.16602H6.66602V4.49935H18.3327ZM18.3327 11.166V9.49935H6.66602V11.166H18.3327ZM6.66602 16.166H18.3327V14.4993H6.66602V16.166ZM1.66602 15.3327C1.66602 16.2532 2.41221 16.9993 3.33268 16.9993C4.25316 16.9993 4.99935 16.2532 4.99935 15.3327C4.99935 14.4122 4.25316 13.666 3.33268 13.666C2.41221 13.666 1.66602 14.4122 1.66602 15.3327ZM3.33268 11.9993C2.41221 11.9993 1.66602 11.2532 1.66602 10.3327C1.66602 9.41221 2.41221 8.66602 3.33268 8.66602C4.25316 8.66602 4.99935 9.41221 4.99935 10.3327C4.99935 11.2532 4.25316 11.9993 3.33268 11.9993Z" fill="black"/>
</g>
</svg>
