<svg width="16" height="16" viewBox="0 0 16 16" fill="none" xmlns="http://www.w3.org/2000/svg">
<path fill-rule="evenodd" clip-rule="evenodd" d="M11.536 3.46439C12.0004 3.9287 12.3689 4.47995 12.6202 5.08667C12.8716 5.69338 13.0009 6.34367 13.0009 7.00039C13.0009 7.65711 12.8716 8.30739 12.6202 8.91411C12.3689 9.52082 12.0004 10.0721 11.536 10.5364L8 14.0704L4.464 10.5354C3.99965 10.0711 3.6313 9.51976 3.38 8.91306C3.12869 8.30635 2.99934 7.65608 2.99934 6.99939C2.99934 6.34269 3.12869 5.69243 3.38 5.08572C3.6313 4.47901 3.99965 3.92774 4.464 3.46339C4.92836 2.99903 5.47963 2.63069 6.08633 2.37938C6.69304 2.12807 7.34331 1.99873 8 1.99873C8.6567 1.99873 9.30696 2.12807 9.91367 2.37938C10.5204 2.63069 11.0716 2.99903 11.536 3.46339V3.46439ZM12.596 11.5964C13.5051 10.6874 14.1242 9.52918 14.3751 8.26829C14.6259 7.0074 14.4972 5.70043 14.0053 4.51268C13.5133 3.32493 12.6802 2.30974 11.6113 1.59548C10.5423 0.881232 9.2856 0.5 8 0.5C6.7144 0.5 5.45767 0.881232 4.38874 1.59548C3.31981 2.30974 2.48669 3.32493 1.99473 4.51268C1.50278 5.70043 1.37409 7.0074 1.62494 8.26829C1.87579 9.52918 2.49491 10.6874 3.404 11.5964L6.939 15.1324C7.0783 15.2718 7.2437 15.3824 7.42576 15.4578C7.60781 15.5333 7.80294 15.5721 8 15.5721C8.19707 15.5721 8.3922 15.5333 8.57425 15.4578C8.7563 15.3824 8.9217 15.2718 9.061 15.1324L12.596 11.5964ZM8 9.00039C8.53044 9.00039 9.03914 8.78967 9.41422 8.4146C9.78929 8.03953 10 7.53082 10 7.00039C10 6.46995 9.78929 5.96125 9.41422 5.58617C9.03914 5.2111 8.53044 5.00039 8 5.00039C7.46957 5.00039 6.96086 5.2111 6.58579 5.58617C6.21072 5.96125 6 6.46995 6 7.00039C6 7.53082 6.21072 8.03953 6.58579 8.4146C6.96086 8.78967 7.46957 9.00039 8 9.00039Z" fill="#39C568"/>
</svg>
