<svg width="20" height="20" viewBox="0 0 20 20" fill="none" xmlns="http://www.w3.org/2000/svg">
<g id="24 / file / note-text">
<path id="icon" fill-rule="evenodd" clip-rule="evenodd" d="M1.66797 16.6667C1.66797 17.5871 2.41416 18.3333 3.33464 18.3333H14.5131L18.3346 14.5119V3.33334C18.3346 2.41286 17.5884 1.66667 16.668 1.66667H3.33464C2.41416 1.66667 1.66797 2.41286 1.66797 3.33334V16.6667ZM3.33464 3.33334H16.668V12.5H14.168C13.2475 12.5 12.5013 13.2462 12.5013 14.1667V16.6667H3.33464V3.33334ZM14.168 14.1667H16.3228L14.168 16.3215V14.1667ZM5.83463 12.5V14.1667H10.8346V12.5H5.83463ZM5.83463 10.8333V9.16667H14.168V10.8333H5.83463ZM5.83463 5.83334V7.5H14.168V5.83334H5.83463Z" fill="white"/>
</g>
</svg>
