<svg width="20" height="21" viewBox="0 0 20 21" fill="none" xmlns="http://www.w3.org/2000/svg">
<path fill-rule="evenodd" clip-rule="evenodd" d="M10.8327 9.66667C9.27948 9.66667 7.9744 8.60436 7.60436 7.16667H1.66602V5.5H7.60436C7.9744 4.06231 9.27948 3 10.8327 3C12.6736 3 14.166 4.49238 14.166 6.33333C14.166 8.17428 12.6736 9.66667 10.8327 9.66667ZM15.8327 5.5H18.3327V7.16667H15.8327V5.5ZM6.66602 18C5.11282 18 3.80773 16.9377 3.4377 15.5H1.66602V13.8333H3.4377C3.80773 12.3956 5.11282 11.3333 6.66602 11.3333C8.50696 11.3333 9.99935 12.8257 9.99935 14.6667C9.99935 16.5076 8.50696 18 6.66602 18ZM11.666 15.5H18.3327V13.8333H11.666V15.5ZM8.33268 14.6667C8.33268 15.5871 7.58649 16.3333 6.66602 16.3333C5.74554 16.3333 4.99935 15.5871 4.99935 14.6667C4.99935 13.7462 5.74554 13 6.66602 13C7.58649 13 8.33268 13.7462 8.33268 14.6667ZM12.4993 6.33333C12.4993 7.25381 11.7532 8 10.8327 8C9.91221 8 9.16602 7.25381 9.16602 6.33333C9.16602 5.41286 9.91221 4.66667 10.8327 4.66667C11.7532 4.66667 12.4993 5.41286 12.4993 6.33333Z" fill="#00A046"/>
</svg>
