<svg width="16" height="17" viewBox="0 0 16 17" fill="none" xmlns="http://www.w3.org/2000/svg">
<path fill-rule="evenodd" clip-rule="evenodd" d="M2.66732 7.01879C3.20642 7.29893 3.88691 7.52353 4.66732 7.6868L4.66732 9.64718V11.0217L4.66732 12.9789C3.44787 12.6998 2.66744 12.308 2.66732 12.0003C2.66732 12.0003 2.66732 12.0003 2.66732 12.0003L2.66732 7.01879ZM1.33398 12.0003V5.33366C1.33398 3.66249 4.32047 2.66699 8.00065 2.66699C11.6808 2.66699 14.6673 3.66249 14.6673 5.33366V12.0003V12.0003C14.6673 13.3551 12.7045 14.2658 10.0007 14.5621V13.3337V13.2107V10.7899C9.38314 10.7128 8.70806 10.667 8.00065 10.667C7.29324 10.667 6.61817 10.7128 6.00065 10.7899L6.00065 13.2107L6.00065 13.3337L6.00065 14.5621C3.29678 14.2658 1.33405 13.3551 1.33398 12.0003C1.33398 12.0003 1.33398 12.0003 1.33398 12.0003ZM13.334 12.0003C13.3339 12.308 12.5534 12.6998 11.334 12.9789L11.334 11.0217V9.64718L11.334 7.6868C12.1144 7.52353 12.7949 7.29893 13.334 7.01879V12.0003V12.0003ZM10.0007 9.43853V6.54408C11.9559 6.30001 13.334 5.7425 13.334 5.33366C13.334 4.79569 10.9479 4.00033 8.00065 4.00033C5.05341 4.00033 2.66732 4.79569 2.66732 5.33366C2.66732 5.7425 4.04544 6.30001 6.00065 6.54408V9.43853C6.63208 9.36934 7.30394 9.33366 8.00065 9.33366C8.69736 9.33366 9.36922 9.36934 10.0007 9.43853Z" fill="white"/>
</svg>
