<svg width="20" height="20" viewBox="0 0 20 20" fill="none" xmlns="http://www.w3.org/2000/svg">
<path fill-rule="evenodd" clip-rule="evenodd" d="M10 0C4.47715 0 0 4.47715 0 10C0 15.5228 4.47715 20 10 20C15.5228 20 20 15.5228 20 10C20 4.47715 15.5228 0 10 0ZM7.36429 5.15102C7.29694 5.0398 7.19286 5.0102 7.07143 5.02041C7.04796 5.02347 7.02449 5.02347 6.9949 5C6.92733 5.01569 6.85967 5.03093 6.792 5.04617C6.63076 5.08249 6.46946 5.11882 6.30917 5.16123C6.02549 5.23776 5.8061 5.40919 5.63059 5.64287C5.40712 5.94389 5.25915 6.28063 5.14078 6.63268C5.00915 7.02248 4.96527 7.41841 5.02854 7.82964C5.08364 8.19291 5.20609 8.53271 5.33058 8.87558C5.53569 9.44395 5.76222 10.0011 6.07958 10.5185C6.56632 11.3154 7.16837 12.0154 7.84287 12.6573C8.37553 13.1624 8.95105 13.6144 9.58372 13.9889C10.2807 14.4002 11.0378 14.6716 11.8062 14.9083C12.2042 15.0328 12.6185 15.0665 13.0338 14.9736C13.4909 14.8716 13.9205 14.7053 14.3052 14.4359C14.444 14.3369 14.5818 14.2144 14.6787 14.0746C14.9103 13.7379 14.9767 13.3461 14.9991 12.9471C15.0073 12.8052 14.9593 12.7022 14.8399 12.6318C14.7595 12.5836 14.6794 12.5346 14.5991 12.4856C14.4583 12.3995 14.3172 12.3133 14.1736 12.2307C14.0343 12.1506 13.8923 12.0749 13.7502 11.9992C13.4635 11.8465 13.1764 11.6935 12.9103 11.5032C12.8818 11.4826 12.8484 11.4669 12.8154 11.4514C12.8058 11.4469 12.7962 11.4425 12.7868 11.4379C12.6368 11.3624 12.494 11.3746 12.3634 11.4848C12.2991 11.5379 12.2327 11.593 12.1776 11.6552C12.0784 11.7668 11.9805 11.8787 11.8828 11.9906C11.7543 12.1375 11.6259 12.2843 11.495 12.4297C11.247 12.7063 11.1225 12.7369 10.8031 12.5562C10.4643 12.3644 10.1286 12.1634 9.80617 11.944C8.96942 11.3777 8.30716 10.643 7.78879 9.77865C7.65738 9.55899 7.53769 9.33483 7.41785 9.11039C7.41021 9.09607 7.40256 9.08174 7.3949 9.06742C7.31225 8.91129 7.34388 8.76333 7.46633 8.64496C7.56253 8.55251 7.66256 8.4635 7.76266 8.37442C7.82608 8.31798 7.88953 8.26152 7.95206 8.20414C8.00235 8.1581 8.05312 8.11235 8.10393 8.06656C8.24798 7.93676 8.39228 7.80672 8.52656 7.66943C8.65411 7.53984 8.65819 7.37657 8.57248 7.21432L8.56603 7.20332C8.52624 7.13537 8.48548 7.06576 8.44288 6.99799C8.42521 6.97074 8.40634 6.94403 8.38747 6.91731C8.35405 6.87 8.32064 6.8227 8.2939 6.77248C8.22482 6.64858 8.15758 6.52376 8.09038 6.39904C7.99874 6.22896 7.9072 6.05905 7.81124 5.89185C7.67869 5.66059 7.5392 5.43452 7.39998 5.20887C7.38808 5.18958 7.37618 5.1703 7.36429 5.15102Z" fill="#C4C4C4"/>
</svg>
