<svg width="20" height="21" viewBox="0 0 20 21" fill="none" xmlns="http://www.w3.org/2000/svg">
<path fill-rule="evenodd" clip-rule="evenodd" d="M10.9129 15.8802L9.99935 16.6778L9.08584 15.8802C5.82303 13.0312 4.16602 10.51 4.16602 8.16732C4.16602 4.85183 6.75226 2.33398 9.99935 2.33398C13.2464 2.33398 15.8327 4.85183 15.8327 8.16732C15.8327 10.51 14.1757 13.0312 10.9129 15.8802ZM4.73731 13.0035C5.07947 13.4719 5.46061 13.9484 5.88058 14.4331C4.32872 14.7827 3.33268 15.2787 3.33268 15.6673C3.33268 16.3398 6.3153 17.334 9.99935 17.334C13.6834 17.334 16.666 16.3398 16.666 15.6673C16.666 15.2787 15.67 14.7827 14.1181 14.4331C14.5381 13.9484 14.9192 13.4719 15.2614 13.0035C17.1354 13.5721 18.3327 14.4843 18.3327 15.6673C18.3327 17.7563 14.5996 19.0006 9.99935 19.0006C5.39913 19.0006 1.66602 17.7563 1.66602 15.6673C1.66602 14.4843 2.8633 13.5721 4.73731 13.0035ZM9.99935 4.00065C12.3358 4.00065 14.166 5.78245 14.166 8.16732C14.166 9.87312 12.8099 11.9722 9.99935 14.464C7.18879 11.9722 5.83268 9.87312 5.83268 8.16732C5.83268 5.78245 7.66289 4.00065 9.99935 4.00065ZM9.99935 5.66732C11.3801 5.66732 12.4993 6.78661 12.4993 8.16732C12.4993 9.54803 11.3801 10.6673 9.99935 10.6673C8.61864 10.6673 7.49935 9.54803 7.49935 8.16732C7.49935 6.78661 8.61864 5.66732 9.99935 5.66732ZM9.16602 8.16732C9.16602 7.70708 9.53911 7.33398 9.99935 7.33398C10.4596 7.33398 10.8327 7.70708 10.8327 8.16732C10.8327 8.62755 10.4596 9.00065 9.99935 9.00065C9.53911 9.00065 9.16602 8.62755 9.16602 8.16732Z" fill="white"/>
</svg>
