<svg width="22" height="21" viewBox="0 0 22 21" fill="none" xmlns="http://www.w3.org/2000/svg">
<path fill-rule="evenodd" clip-rule="evenodd" d="M10.834 19.6366L11.3821 19.158C15.9912 15.1334 18.334 11.6192 18.334 8.53027C18.334 4.15583 14.9198 1.03027 10.834 1.03027C6.74819 1.03027 3.33398 4.15583 3.33398 8.53027C3.33398 11.6192 5.67674 15.1334 10.2859 19.158L10.834 19.6366ZM10.834 17.4164C6.92283 13.8916 5.00065 10.9046 5.00065 8.53027C5.00065 5.11077 7.63741 2.69694 10.834 2.69694C14.0306 2.69694 16.6673 5.11077 16.6673 8.53027C16.6673 10.9046 14.7451 13.8916 10.834 17.4164ZM10.834 4.36361C13.1352 4.36361 15.0007 6.22909 15.0007 8.53027C15.0007 10.8315 13.1352 12.6969 10.834 12.6969C8.5328 12.6969 6.66732 10.8315 6.66732 8.53027C6.66732 6.22909 8.5328 4.36361 10.834 4.36361ZM8.33398 8.53027C8.33398 7.14956 9.45327 6.03027 10.834 6.03027C12.2147 6.03027 13.334 7.14956 13.334 8.53027C13.334 9.91099 12.2147 11.0303 10.834 11.0303C9.45327 11.0303 8.33398 9.91099 8.33398 8.53027Z" fill="#171717"/>
</svg>
