<svg width="24" height="24" viewBox="0 0 24 24" fill="none" xmlns="http://www.w3.org/2000/svg">
<path fill-rule="evenodd" clip-rule="evenodd" d="M15.5077 16.7712C14.3526 18.2845 10.2088 18.3566 8.8078 16.8899C7.49579 18.3969 2.95993 18.5686 1.48047 15.6859L2.36221 14.7194C3.67846 16.7521 7.13759 16.9704 8.68275 14.7194C8.78057 14.7083 8.87892 14.7026 8.97737 14.7025C9.98204 16.3981 12.8223 16.7351 14.4289 15.6245C14.4119 13.4583 14.3611 6.93426 14.3611 6.42556C14.3611 2.1504 20.1708 2.42594 19.8359 6.82828L18.543 6.94062C18.543 4.6854 16.1457 4.80197 16.1436 6.44464C16.1436 6.88975 16.1881 13.329 16.203 15.2599C17.8435 16.6228 20.5883 16.432 21.9724 14.7682L22.8202 15.5333C21.4171 18.4944 17.1843 18.4032 15.5077 16.7712ZM11.8261 12.1908C10.531 12.1738 8.55134 12.1781 7.42373 12.1908C7.43645 13.4053 7.44704 14.3103 7.44704 14.3103L5.6878 14.8275C5.6878 14.8275 5.61362 7.07839 5.61362 6.43616C5.61362 2.161 11.4827 2.36447 11.1478 6.57181L9.79764 6.83464C9.79764 4.42257 7.3771 4.90371 7.3771 6.41072C7.3771 7.3073 7.38982 8.9754 7.40677 10.5481L13.4009 10.4803C13.4009 10.4803 13.7294 12.212 11.8261 12.1908ZM8.68275 18.3587C8.78055 18.3472 8.8789 18.3408 8.97737 18.3396C10.2025 20.3977 14.1555 20.4592 15.2746 18.3269H15.6413C17.125 20.2981 20.4145 20.2854 21.9724 18.4138L22.8202 19.179C21.4256 22.1464 17.1928 22.0489 15.5162 20.4168C14.3611 21.9302 10.2173 22.0001 8.81628 20.5355C7.50427 22.0425 2.9684 22.2121 1.48895 19.3316L2.36221 18.3587C3.67846 20.3977 7.13759 20.6161 8.68275 18.3587Z" fill="#39C568"/>
</svg>
