<svg width="20" height="20" viewBox="0 0 20 20" fill="none" xmlns="http://www.w3.org/2000/svg">
<path fill-rule="evenodd" clip-rule="evenodd" d="M15.3027 4.69703L16.4812 3.51851C18.14 5.17735 19.166 7.46902 19.166 10.0003C19.166 15.0629 15.062 19.167 9.99935 19.167C4.93674 19.167 0.832684 15.0629 0.832684 10.0003C0.832684 5.21862 4.49393 1.29205 9.16602 0.871029V0.83366H9.99935H10.8327L10.8327 9.16699L11.7671 8.23256C12.2195 8.68497 12.4993 9.30997 12.4993 10.0003C12.4993 11.381 11.3801 12.5003 9.99935 12.5003C8.61864 12.5003 7.49935 11.381 7.49935 10.0003C7.49935 8.91181 8.19502 7.98578 9.16602 7.64258V5.91701C7.26415 6.30307 5.83268 7.98453 5.83268 10.0003C5.83268 12.3015 7.69816 14.167 9.99935 14.167C12.3005 14.167 14.166 12.3015 14.166 10.0003C14.166 8.84973 13.6996 7.80807 12.9456 7.05405L14.1241 5.87554C15.1798 6.93116 15.8327 8.3895 15.8327 10.0003C15.8327 13.222 13.221 15.8337 9.99935 15.8337C6.77769 15.8337 4.16602 13.222 4.16602 10.0003C4.16602 7.0616 6.3391 4.63042 9.16602 4.22607V2.5461C5.41606 2.96064 2.49935 6.13986 2.49935 10.0003C2.49935 14.1425 5.85721 17.5003 9.99935 17.5003C14.1415 17.5003 17.4993 14.1425 17.4993 10.0003C17.4993 7.92926 16.6599 6.05426 15.3027 4.69703Z" fill="#1596DF"/>
</svg>
