<svg width="20" height="20" viewBox="0 0 20 20" fill="none" xmlns="http://www.w3.org/2000/svg">
<path fill-rule="evenodd" clip-rule="evenodd" d="M4.99935 18.3331C6.08786 18.3331 7.0139 17.6374 7.35709 16.6664H14.5827C16.6538 16.6664 18.3327 14.9875 18.3327 12.9164C18.3327 10.8453 16.6538 9.1664 14.5827 9.1664H5.41602C4.26542 9.1664 3.33268 8.23366 3.33268 7.08307C3.33268 5.93248 4.26542 4.99974 5.41602 4.99974H7.9875L6.91009 6.07715L8.0886 7.25566L11.1779 4.1664L8.0886 1.07715L6.91009 2.25566L7.9875 3.33307H5.41602C3.34495 3.33307 1.66602 5.012 1.66602 7.08307C1.66602 9.15414 3.34495 10.8331 5.41602 10.8331H14.5827C15.7333 10.8331 16.666 11.7658 16.666 12.9164C16.666 14.067 15.7333 14.9997 14.5827 14.9997H7.35709C7.0139 14.0287 6.08786 13.3331 4.99935 13.3331C3.61864 13.3331 2.49935 14.4524 2.49935 15.8331C2.49935 17.2138 3.61864 18.3331 4.99935 18.3331ZM4.16602 15.8331C4.16602 15.3728 4.53911 14.9997 4.99935 14.9997C5.45959 14.9997 5.83268 15.3728 5.83268 15.8331C5.83268 16.2933 5.45959 16.6664 4.99935 16.6664C4.53911 16.6664 4.16602 16.2933 4.16602 15.8331ZM14.9993 1.6664C16.3801 1.6664 17.4993 2.78568 17.4993 4.1664C17.4993 5.54711 16.3801 6.6664 14.9993 6.6664C13.6186 6.6664 12.4993 5.54711 12.4993 4.1664C12.4993 2.78568 13.6186 1.6664 14.9993 1.6664ZM14.166 4.1664C14.166 3.70616 14.5391 3.33306 14.9993 3.33306C15.4596 3.33306 15.8327 3.70616 15.8327 4.1664C15.8327 4.62663 15.4596 4.99973 14.9993 4.99973C14.5391 4.99973 14.166 4.62663 14.166 4.1664Z" fill="#1596DF"/>
</svg>
