<svg width="16" height="16" viewBox="0 0 16 16" fill="none" xmlns="http://www.w3.org/2000/svg">
<path fill-rule="evenodd" clip-rule="evenodd" d="M11.4994 7.00039C11.4994 7.59133 11.383 8.1765 11.1568 8.72246C10.9307 9.26843 10.5992 9.7645 10.1814 10.1824C9.76352 10.6002 9.26745 10.9317 8.72148 11.1579C8.17552 11.384 7.59036 11.5004 6.99941 11.5004C6.40846 11.5004 5.8233 11.384 5.27733 11.1579C4.73137 10.9317 4.23529 10.6002 3.81743 10.1824C3.39956 9.7645 3.0681 9.26843 2.84195 8.72246C2.6158 8.1765 2.49941 7.59133 2.49941 7.00039C2.49941 5.80691 2.97351 4.66232 3.81743 3.81841C4.66134 2.97449 5.80593 2.50039 6.99941 2.50039C8.19288 2.50039 9.33747 2.97449 10.1814 3.81841C11.0253 4.66232 11.4994 5.80691 11.4994 7.00039ZM10.6794 11.7404C9.47379 12.6764 7.95678 13.1177 6.43721 12.9745C4.91764 12.8314 3.50975 12.1145 2.50016 10.9698C1.49056 9.8251 0.955164 8.33868 1.00294 6.81314C1.05073 5.28759 1.67811 3.83759 2.75736 2.75834C3.83662 1.67909 5.28661 1.05171 6.81216 1.00392C8.33771 0.956137 9.82412 1.49154 10.9688 2.50114C12.1135 3.51073 12.8304 4.91862 12.9735 6.43819C13.1167 7.95775 12.6754 9.47476 11.7394 10.6804L14.7794 13.7204C14.8531 13.7891 14.9122 13.8719 14.9532 13.9639C14.9942 14.0559 15.0162 14.1552 15.018 14.2559C15.0198 14.3566 15.0012 14.4566 14.9635 14.55C14.9258 14.6434 14.8696 14.7282 14.7984 14.7994C14.7272 14.8707 14.6424 14.9268 14.549 14.9645C14.4556 15.0022 14.3556 15.0208 14.2549 15.019C14.1542 15.0172 14.0548 14.9952 13.9629 14.9542C13.8709 14.9132 13.7881 14.8541 13.7194 14.7804L10.6794 11.7404Z" fill="#B3B3B3"/>
</svg>
