<svg width="20" height="21" viewBox="0 0 20 21" fill="none" xmlns="http://www.w3.org/2000/svg">
<path fill-rule="evenodd" clip-rule="evenodd" d="M6.66602 1.83398V3.50065H9.16602V1.83398H6.66602ZM10.8327 1.83398V3.50065H13.3327V1.83398H10.8327ZM6.66602 18.5007V16.834H9.16602V18.5007H6.66602ZM10.8327 16.834V18.5007H13.3327V16.834H10.8327ZM1.66602 13.5007V11.0007H3.33268V13.5007H1.66602ZM1.66602 6.83398V9.33398H3.33268V6.83398H1.66602ZM16.666 13.5007V11.0007H18.3327V13.5007H16.666ZM16.666 6.83398V9.33398H18.3327V6.83398H16.666ZM1.66602 5.16732V1.83398H4.99935V3.50065H3.33268V5.16732H1.66602ZM16.666 5.16732H18.3327V1.83398H14.9993V3.50065H16.666V5.16732ZM1.66602 15.1673H3.33268V16.834H4.99935V18.5007H1.66602V15.1673ZM14.9993 16.834V18.5007H18.3327V15.1673H16.666V16.834H14.9993Z" fill="#999999"/>
</svg>
