<svg width="20" height="21" viewBox="0 0 20 21" fill="none" xmlns="http://www.w3.org/2000/svg">
<path fill-rule="evenodd" clip-rule="evenodd" d="M10 19.5003C5 17.2729 2.5 15.0507 2.5 12.8337V4.50033C2.5 3.86067 2.7455 3.712 3.42494 3.30057C3.63066 3.17599 3.87616 3.02733 4.16667 2.83366C4.30149 2.74377 7.13601 1.16699 10 1.16699C12.496 1.16699 14.5833 2.00033 15.8333 2.83366C16.1238 3.02733 16.3693 3.17599 16.5751 3.30057C17.2545 3.712 17.5 3.86067 17.5 4.50033C17.5164 4.68136 17.5084 8.53158 17.5032 10.9962V10.9963C17.5014 11.8366 17.5 12.5158 17.5 12.8337C17.5 15.0559 15 17.2781 10 19.5003ZM15.8335 12.8337C15.8335 12.6417 15.834 12.3202 15.835 11.7959L15.8384 10.1682L15.841 8.75849C15.8441 6.89837 15.8433 5.30185 15.8415 4.80807L15.727 4.73699C15.4575 4.56982 15.1063 4.35195 14.909 4.22042C13.6788 3.40027 11.8837 2.83367 10.0002 2.83367C8.19858 2.83367 5.85737 3.70973 5.09134 4.22042C4.89404 4.35195 4.54281 4.56985 4.27334 4.73702L4.16684 4.80312V12.8337C4.16684 14.0907 6.02443 15.8076 10.0009 17.6687C13.977 15.8118 15.8335 14.0955 15.8335 12.8337ZM12.7442 7.2444L9.16674 10.8218L7.256 8.91106L6.07749 10.0896L9.16674 13.1788L13.9227 8.42291L12.7442 7.2444Z" fill="#171717"/>
</svg>
