<svg width="24" height="24" viewBox="0 0 24 24" fill="none" xmlns="http://www.w3.org/2000/svg">
<path fill-rule="evenodd" clip-rule="evenodd" d="M21.7782 13.7548L21.332 17.5719L2.77608 17.5058L2.51643 13.5013L0.53125 12.5136C0.53125 9.10636 5.29773 8.54383 5.29773 12.4426L18.7332 12.6155C18.7332 8.26023 23.7632 9.21213 23.7632 12.5869L21.7782 13.7548ZM17.9943 11.5721L12.4934 11.6445L12.5912 4.35196C14.598 3.41978 19.2103 3.73474 20.7928 4.97342L21.0932 8.74624C19.4075 8.74603 17.9943 9.77233 17.9943 11.5721ZM3.06031 8.68054L3.31742 4.89542C4.8079 3.53932 9.44381 3.41808 11.5008 4.36913L11.5833 11.6568L6.13856 11.7287C6.13835 9.85329 4.67881 8.68054 3.06031 8.68054ZM4.60823 19.9674H3.66354L3.61924 18.6732L5.00586 18.7175L4.60823 19.9674ZM20.3674 19.9674H19.4183L19.0204 18.5711L20.4113 18.4852L20.3674 19.9674Z" fill="#39C568"/>
</svg>
