<svg width="20" height="21" viewBox="0 0 20 21" fill="none" xmlns="http://www.w3.org/2000/svg">
<g clip-path="url(#clip0_627_146)">
<path d="M19 12.2394C19 11.2904 18.2279 10.5183 17.2789 10.5183H3.11506V3.48414C3.11506 2.78849 3.68103 2.22256 4.37667 2.22256H5.5329C5.72821 2.22256 5.91452 2.3064 6.04409 2.45254L6.5729 3.04909C6.54126 3.20281 6.5246 3.36198 6.5246 3.52492V4.21663C6.31994 4.28908 6.17307 4.48379 6.17307 4.71327C6.17307 5.00448 6.40916 5.24057 6.70037 5.24057H11.0627C11.3539 5.24057 11.59 5.00448 11.59 4.71327C11.59 4.48379 11.4432 4.28908 11.2385 4.21663V3.52492C11.2385 2.22527 10.1812 1.16797 8.88155 1.16797C8.15384 1.16797 7.50225 1.4996 7.06955 2.01955L6.83325 1.75302C6.50365 1.38117 6.02971 1.16797 5.53286 1.16797H4.37667C3.09952 1.16797 2.06047 2.20699 2.06047 3.48414V10.5886C2.06047 10.609 2.06191 10.6291 2.06416 10.6489C1.44015 10.9075 1 11.5229 1 12.2394C1 12.9544 1.43843 13.5688 2.06047 13.8284V14.7814C2.06047 16.6688 3.59599 18.2043 5.4834 18.2043H5.78477V18.6391C5.78477 18.9303 6.02086 19.1664 6.31206 19.1664C6.60327 19.1664 6.83936 18.9303 6.83936 18.6391V18.2043H13.1606V18.6391C13.1606 18.9303 13.3967 19.1664 13.6879 19.1664C13.9791 19.1664 14.2152 18.9303 14.2152 18.6391V18.2043H14.5166C16.404 18.2043 17.9395 16.6688 17.9395 14.7814V13.8284C18.5616 13.5688 19 12.9544 19 12.2394ZM8.88151 2.22253C9.59966 2.22253 10.1839 2.80677 10.1839 3.52488V4.18594H7.57916V3.52492C7.57916 2.80677 8.16337 2.22253 8.88151 2.22253ZM14.5166 17.1497H5.4834C4.17749 17.1497 3.11506 16.0873 3.11506 14.7814V13.9604H16.8849V14.7814C16.8849 16.0873 15.8225 17.1497 14.5166 17.1497ZM17.2789 12.9058H2.72106C2.35357 12.9058 2.05459 12.6068 2.05459 12.2394C2.05459 11.8719 2.35357 11.5729 2.72106 11.5729H17.2789C17.6464 11.5729 17.9454 11.8719 17.9454 12.2394C17.9454 12.6068 17.6464 12.9058 17.2789 12.9058Z" fill="#999999"/>
<path d="M11.4356 8.83733C11.3907 8.62089 11.2153 8.45215 10.9962 8.41883C10.7787 8.38578 10.5572 8.49788 10.4538 8.69179C10.3504 8.88591 10.3798 9.13117 10.528 9.29432C10.6759 9.45715 10.9171 9.51178 11.1203 9.4272C11.3484 9.33232 11.4862 9.08073 11.4356 8.83733Z" fill="#999999"/>
<path d="M9.32625 8.83732C9.28133 8.62085 9.10598 8.45215 8.8868 8.41882C8.66938 8.38578 8.44778 8.49792 8.34446 8.69179C8.24101 8.8859 8.27046 9.13117 8.41864 9.29431C8.56659 9.45721 8.80764 9.51198 9.01096 9.42719C9.239 9.33214 9.37684 9.08093 9.32625 8.83732Z" fill="#999999"/>
<path d="M7.21688 8.83732C7.17196 8.62092 6.99651 8.45212 6.77743 8.41883C6.55997 8.38578 6.3384 8.49788 6.23509 8.69179C6.13163 8.88591 6.16109 9.13117 6.30926 9.29432C6.45712 9.45711 6.69834 9.51177 6.90159 9.42719C7.12963 9.33235 7.2674 9.08065 7.21688 8.83732Z" fill="#999999"/>
<path d="M11.4434 6.77945C11.4206 6.56006 11.261 6.37403 11.0468 6.32018C10.8337 6.26657 10.6019 6.35519 10.4802 6.53865C10.3587 6.72166 10.3634 6.96868 10.4951 7.14529C10.6269 7.32204 10.8606 7.39984 11.0718 7.33554C11.309 7.26341 11.4685 7.02693 11.4434 6.77945Z" fill="#999999"/>
<path d="M9.33393 6.77945C9.31115 6.56006 9.15156 6.37406 8.93737 6.32017C8.72406 6.26653 8.49279 6.35536 8.37077 6.53865C8.24872 6.72197 8.25477 6.96818 8.38568 7.14525C8.51648 7.32217 8.7519 7.39997 8.9624 7.33592C9.19951 7.26379 9.35906 7.02654 9.33393 6.77945Z" fill="#999999"/>
<path d="M7.22452 6.77945C7.20178 6.56013 7.04208 6.37403 6.82796 6.32018C6.61487 6.26657 6.3831 6.35519 6.26137 6.53865C6.13956 6.72222 6.14519 6.96798 6.27627 7.14525C6.40708 7.32218 6.6425 7.39997 6.85299 7.33593C7.09006 7.26383 7.24962 7.0264 7.22452 6.77945Z" fill="#999999"/>
</g>
<defs>
<clipPath id="clip0_627_146">
<rect width="18" height="18" fill="white" transform="translate(1 1.16699)"/>
</clipPath>
</defs>
</svg>
