<svg width="24" height="24" viewBox="0 0 24 24" fill="none" xmlns="http://www.w3.org/2000/svg">
<path fill-rule="evenodd" clip-rule="evenodd" d="M22.4223 18.1605C22.3742 18.5458 22.0884 18.7015 21.5924 18.6421C21.0963 18.5827 20.7817 18.5233 20.3081 18.4736C19.8345 18.4238 19.6756 18.1316 19.7141 17.7512C19.8329 16.5407 20.3563 12.5899 20.3563 12.5899L23.0565 12.9512C23.0565 12.9512 22.5684 16.9677 22.4223 18.1605ZM21.2248 13.452C21.1638 13.4528 21.1036 13.4655 21.0476 13.4895C20.9916 13.5135 20.9409 13.5483 20.8983 13.5919C20.8558 13.6355 20.8222 13.687 20.7996 13.7436C20.777 13.8002 20.7657 13.8607 20.7664 13.9216C20.7672 13.9825 20.7799 14.0427 20.8039 14.0987C20.8279 14.1547 20.8627 14.2054 20.9063 14.248C20.9499 14.2906 21.0014 14.3241 21.058 14.3468C21.1146 14.3694 21.1751 14.3807 21.236 14.3799C21.8396 14.3799 21.8396 13.452 21.2248 13.452ZM0.921875 16.1811L0.936323 5.08493L18.8296 5.0769L18.7557 16.2453L0.921875 16.1811ZM13.2831 17.0833L16.4938 17.9293L16.0603 18.7079C12.3921 17.8234 7.58569 17.7255 3.85967 18.6646L3.41338 17.9229L6.37686 17.1026L13.2831 17.0833Z" fill="#39C568"/>
</svg>
