<svg width="20" height="20" viewBox="0 0 20 20" fill="none" xmlns="http://www.w3.org/2000/svg">
<path d="M19.1595 7.05887C19.1597 5.18051 18.4235 3.40988 17.0866 2.07306C15.7498 0.736237 13.9792 0 12.1007 0H7.91824C7.91809 0 7.91809 0 7.91809 0C6.03989 0 4.2691 0.736237 2.93243 2.07291C1.59561 3.40988 0.859375 5.18051 0.859375 7.05887V10.3465C0.859375 11.8013 1.3031 13.2005 2.14264 14.3933C2.8833 15.4456 3.87939 16.2675 5.04074 16.7886V18.6771C5.04074 19.6535 5.58746 20 6.0556 20C6.39008 20 6.72455 19.8349 7.05017 19.5094L9.15405 17.4055L12.1008 17.4054C13.9792 17.4054 15.7498 16.6692 17.0866 15.3325C18.4235 13.9957 19.1597 12.2249 19.1597 10.3465L19.1595 7.05887ZM12.1008 16.2335L8.91144 16.2337C8.75595 16.2337 8.60703 16.2953 8.49716 16.4052L6.22162 18.6807C6.21872 18.6838 6.21567 18.6867 6.21262 18.6896C6.21262 18.6855 6.21262 18.6812 6.21262 18.6771V16.3976C6.21262 16.1545 6.06262 15.9367 5.83557 15.8501C3.56018 14.9818 2.0314 12.7701 2.0314 10.3465V7.05887C2.0314 5.49347 2.64572 4.01703 3.76114 2.90146C4.87656 1.78619 6.35284 1.17188 7.91824 1.17188H12.1007C13.6661 1.17188 15.1425 1.78619 16.2579 2.90161C17.3735 4.01718 17.9878 5.49362 17.9877 7.05887L17.9878 10.3465C17.9877 13.5927 15.3468 16.2335 12.1008 16.2335Z" fill="white"/>
<path d="M11.5673 9.58353C11.3386 9.35464 10.9676 9.35464 10.7387 9.58353L10.2654 10.0567L8.43131 8.22275L8.90464 7.74957C9.0145 7.63971 9.0763 7.49063 9.0763 7.33514C9.0763 7.17981 9.0145 7.03073 8.90464 6.92087L6.6857 4.70193C6.57584 4.59207 6.42691 4.53027 6.27143 4.53027C6.11609 4.53027 5.96701 4.59207 5.85715 4.70193L4.30381 6.25528C3.46381 7.09528 3.46381 8.46231 4.30396 9.30276L9.1854 14.1845C9.59128 14.5902 10.1325 14.8136 10.7091 14.8136C11.2859 14.8136 11.8272 14.5902 12.233 14.1845L13.7864 12.6313C13.8962 12.5213 13.958 12.3724 13.958 12.2169C13.958 12.0616 13.8962 11.9125 13.7864 11.8026L11.5673 9.58353ZM11.4043 13.3557C11.2199 13.5401 10.973 13.6418 10.7091 13.6418C10.4453 13.6418 10.1984 13.5401 10.014 13.3557L5.13266 8.47406C4.74936 8.09076 4.74921 7.46698 5.13251 7.08383L6.27143 5.94476L7.66166 7.33514L7.18833 7.80832C7.07846 7.91818 7.01667 8.06726 7.01667 8.2226C7.01667 8.37808 7.07846 8.52701 7.18833 8.63702L9.85099 11.2997C10.0799 11.5284 10.4508 11.5286 10.6797 11.2997L11.153 10.8265L12.5432 12.2167L11.4043 13.3557Z" fill="white"/>
<path d="M10.1523 2.5918C9.8287 2.5918 9.56641 2.8541 9.56641 3.17773C9.56641 3.50122 9.8287 3.76367 10.1523 3.76367C11.4933 3.76367 12.7541 4.28583 13.7023 5.23416C14.6506 6.18234 15.1728 7.44302 15.1728 8.78412C15.1728 9.1076 15.4351 9.37006 15.7587 9.37006C16.0822 9.37006 16.3447 9.10776 16.3447 8.78412C16.3447 7.13007 15.7006 5.57504 14.531 4.40546C13.3614 3.23587 11.8064 2.5918 10.1523 2.5918Z" fill="white"/>
<path d="M12.6624 8.78433C12.6624 9.10782 12.9249 9.37027 13.2484 9.37027C13.572 9.37027 13.8343 9.10782 13.8343 8.78433C13.8343 6.75415 12.1825 5.10254 10.1523 5.10254C9.8287 5.10254 9.56641 5.36484 9.56641 5.68848C9.56641 6.01212 9.8287 6.27441 10.1523 6.27441C11.5365 6.27441 12.6624 7.40036 12.6624 8.78433Z" fill="white"/>
</svg>
