<svg width="24" height="24" viewBox="0 0 24 24" fill="none" xmlns="http://www.w3.org/2000/svg">
<path fill-rule="evenodd" clip-rule="evenodd" d="M18.2559 23.1389C16.0943 23.1389 6.7178 23.1389 4.87094 23.1389C2.12854 23.1389 2.55985 21.1433 2.55985 21.1433L20.7551 21.1835C20.7551 21.1833 21.3635 23.1389 18.2559 23.1389ZM4.07779 20.2948L3.53174 3.97937L19.3354 4.04177L19.0309 20.135L4.07779 20.2948ZM17.4533 18.1577L17.5967 10.2671L12.2609 10.3293L12.252 18.2614L17.4533 18.1577ZM10.7011 18.2927L10.5322 10.3497L5.24488 10.4114L5.49585 18.397L10.7011 18.2927ZM5.097 5.7028L5.18842 8.62143L17.625 8.69366L17.678 5.77274L5.097 5.7028Z" fill="#39C568"/>
</svg>
